<svg xmlns="http://www.w3.org/2000/svg" width="300" height="323" viewBox="0 0 300 323" fill="none">
<path d="M228.655 161.511C228.655 188.856 258.276 205.941 281.95 192.269C305.647 178.596 305.647 144.404 281.95 130.731C258.276 117.059 228.655 134.144 228.655 161.511Z" fill="#ff0654"/>
<path d="M97.1458 129.637C80.8761 129.637 67.6758 116.458 67.6758 100.188V33.8861C67.6758 21.8019 61.2366 10.6192 50.7622 4.58782C28.2036 -8.4408 0 7.82889 0 33.8861V289.114C0 315.171 28.2036 331.441 50.7622 318.412C61.2366 312.381 67.6758 301.198 67.6758 289.114V222.833C67.6758 206.542 80.8761 193.363 97.1458 193.363C113.415 193.363 126.616 206.542 126.616 222.833C126.616 245.843 151.535 260.245 171.475 248.719L178.001 244.963C188.582 238.845 195.107 227.534 195.107 215.299V107.701C195.107 95.4662 188.582 84.1547 178.001 78.0374L171.475 74.2813C151.535 62.7551 126.616 77.1574 126.616 100.188C126.616 116.458 113.415 129.637 97.1458 129.637Z" fill="#ff0654"/>
</svg>